<?xml version="1.0" encoding="utf-8"?><!-- Uploaded to: SVG Repo, www.svgrepo.com, Generator: SVG Repo Mixer Tools -->
<svg fill="#000000" width="800px" height="800px" viewBox="0 0 24 24" id="blood-drop" data-name="Flat Line" xmlns="http://www.w3.org/2000/svg" class="icon flat-line"><path id="secondary" d="M12,16c0-2.15.87-3,2.6-5.7C13.6,8.64,12.07,6.63,10,3c-4,7-6,8-6,12a6,6,0,0,0,10,4.45A4,4,0,0,1,12,16Z" style="fill: rgb(44, 169, 188); stroke-width: 2;"></path><path id="primary" d="M14,19.45A6,6,0,0,1,4,15c0-4,2-5,6-12,2.08,3.63,3.61,5.65,4.61,7.3" style="fill: none; stroke: rgb(0, 0, 0); stroke-linecap: round; stroke-linejoin: round; stroke-width: 2;"></path><path id="primary-2" data-name="primary" d="M16,8c-2.67,4.67-4,5.33-4,8a4,4,0,0,0,8,0C20,13.33,18.67,12.67,16,8Z" style="fill: none; stroke: rgb(0, 0, 0); stroke-linecap: round; stroke-linejoin: round; stroke-width: 2;"></path></svg>